<?xml version="1.0" encoding="UTF-8" standalone="no"?>
<!-- Uploaded to: SVG Repo, www.svgrepo.com, Generator: SVG Repo Mixer Tools -->

<svg
   fill="#000000"
   width="800px"
   height="800px"
   viewBox="0 0 32 32"
   version="1.1"
   id="svg78"
   sodipodi:docname="green.svg"
   inkscape:version="1.2.2 (b0a8486541, 2022-12-01)"
   xmlns:inkscape="http://www.inkscape.org/namespaces/inkscape"
   xmlns:sodipodi="http://sodipodi.sourceforge.net/DTD/sodipodi-0.dtd"
   xmlns="http://www.w3.org/2000/svg"
   xmlns:svg="http://www.w3.org/2000/svg"
   xmlns:rdf="http://www.w3.org/1999/02/22-rdf-syntax-ns#"
   xmlns:cc="http://creativecommons.org/ns#"
   xmlns:dc="http://purl.org/dc/elements/1.1/">
  <defs
     id="defs82" />
  <sodipodi:namedview
     id="namedview80"
     pagecolor="#505050"
     bordercolor="#ffffff"
     borderopacity="1"
     inkscape:showpageshadow="0"
     inkscape:pageopacity="0"
     inkscape:pagecheckerboard="1"
     inkscape:deskcolor="#505050"
     showgrid="false"
     inkscape:zoom="1"
     inkscape:cx="515.5"
     inkscape:cy="297"
     inkscape:window-width="2560"
     inkscape:window-height="1371"
     inkscape:window-x="0"
     inkscape:window-y="0"
     inkscape:window-maximized="1"
     inkscape:current-layer="svg78" />
  <title
     id="title74">rss</title>
  <path
     d="M20.885 30.996h-5.83c-0.037-7.745-6.306-14.014-14.047-14.052h-0.004v-5.83c10.958 0.055 19.826 8.924 19.881 19.877l0 0.005zM5.117 22.767c0.001 0 0.001 0 0.002 0 2.272 0 4.114 1.842 4.114 4.114s-1.842 4.114-4.114 4.114c-2.271 0-4.113-1.84-4.114-4.111v-0c0.003-2.271 1.842-4.112 4.112-4.118h0.001zM24.996 30.996c-0.064-13.225-10.767-23.928-23.986-23.993l-0.006-0v-5.998c16.531 0.082 29.91 13.461 29.991 29.984l0 0.008z"
     id="path76" />
  <path
     style="fill:#00ffb4;stroke-width:0.778968;fill-opacity:1"
     d="M 376.35704,761.74035 C 369.65486,599.16326 252.15275,461.76849 92.697176,430.05799 c -17.98821,-3.57727 -49.292455,-6.92836 -66.017527,-7.06713 -1.288426,-0.0107 -1.363193,-3.98464 -1.363193,-72.45532 v -72.44401 l 4.089581,0.0149 c 7.867303,0.0288 32.233398,1.54874 43.816943,2.73335 101.52557,10.38266 196.44886,51.11596 274.19669,117.66274 12.92307,11.06125 38.44887,36.15268 49.07054,48.2355 76.92327,87.50508 121.14467,198.13381 124.78364,312.17137 l 0.49092,15.38462 h -72.4451 -72.44511 z"
     id="path322"
     transform="scale(0.04)" />
  <path
     style="fill:#ffffff;stroke-width:0.778968"
     d="M 113.23272,773.45906 C 80.274712,768.61815 51.08403,747.22843 35.869804,716.77073 24.232268,693.4733 22.450223,663.33214 31.246413,638.57163 c 6.2571,-17.6132 17.205695,-33.40244 31.173701,-44.95638 35.821283,-29.63034 84.795116,-32.01948 123.357536,-6.01787 7.93299,5.349 19.85262,17.07635 25.71552,25.30068 21.8832,30.69722 24.83763,71.85526 7.5804,105.60263 -14.72561,28.79669 -42.96098,49.46457 -74.57503,54.58785 -7.84911,1.27201 -23.83829,1.46149 -31.26582,0.37052 z"
     id="path324"
     transform="scale(0.04)" />
  <path
     style="fill:#ffffff;stroke-width:0.778968"
     d="M 624.85852,758.47213 C 620.7237,630.26697 576.79508,508.43563 498.37304,407.67806 394.74403,274.53431 241.55823,191.29072 73.612463,176.85643 65.61126,176.16876 33.65037,174.55206 27.069133,174.50211 l -1.752677,-0.0133 V 100.09737 25.70594 l 10.321324,4.5e-4 c 20.659261,9.02e-4 53.376965,2.364977 81.40039,5.881728 138.95445,17.437846 272.18261,74.814192 381.09778,164.124452 37.77628,30.97648 76.45518,69.72838 107.10379,107.30593 50.27744,61.644 90.86985,131.67255 119.59462,206.3203 27.12133,70.48085 43.95709,148.55808 48.22987,223.66996 0.4265,7.49757 1.003,19.85395 1.28112,27.45862 l 0.50566,13.82668 H 700.1099 625.3688 Z"
     id="path326"
     transform="scale(0.04)" />
  <metadata
     id="metadata344">
    <rdf:RDF>
      <cc:Work
         rdf:about="">
        <dc:title>rss</dc:title>
      </cc:Work>
    </rdf:RDF>
  </metadata>
  <path
     style="fill:#00ffb4;fill-opacity:1;stroke-width:0.778968"
     d="m 625.62194,766.30964 c -0.23577,-4.39143 -0.8021,-14.99513 -1.25851,-23.56378 C 616.55392,596.13026 554.11706,456.52349 449.46446,351.67746 375.48227,277.55853 285.5455,224.82472 185.20282,196.72946 142.19138,184.68656 99.990508,177.76471 54.527751,175.29595 46.387537,174.85391 36.484907,174.49147 32.521908,174.49052 l -7.205452,-0.002 V 100.04734 25.605882 l 14.216163,0.476201 c 58.327063,1.95379 107.307121,8.437181 159.444811,21.105386 102.98243,25.022249 199.33399,71.537871 284.11392,137.161621 39.29721,30.41793 83.65649,73.28732 116.01993,112.12316 107.66117,129.1925 168.39957,287.87886 174.39246,455.62123 0.24491,6.85491 0.63845,14.65433 0.87455,17.33203 l 0.42926,4.86855 H 700.42907 626.0506 Z"
     id="path1766"
     transform="scale(0.04)" />
  <path
     style="fill:#00ffb4;fill-opacity:1;stroke-width:0.778968"
     d="M 107.88705,771.99261 C 88.524382,767.86091 71.107103,758.43754 56.858127,744.38414 37.342148,725.13604 27.572177,703.1357 26.380933,675.75463 24.158036,624.66072 61.056489,579.92438 112.50021,571.34208 c 17.28097,-2.88297 38.42106,-0.23949 54.97788,6.87476 31.92133,13.71617 54.96905,42.73823 60.75654,76.50565 9.28234,54.15816 -26.48494,106.2026 -80.56056,117.22251 -10.30132,2.09928 -30.06134,2.12292 -39.78702,0.0476 z"
     id="path1768"
     transform="scale(0.04)" />
  <path
     style="fill:#ffffff;stroke-width:0.00390625"
     d="m 374.23828,288.02479 c -3.06452,-2.20547 -6.40831,-4.56395 -9.3418,-6.58905 -0.13642,-0.0942 -0.24877,-0.17186 -0.24967,-0.17263 -9e-4,-7.6e-4 0.14685,-10e-4 0.32832,-10e-4 h 0.32996 l 0.16972,0.11772 c 2.88,1.99765 5.67334,3.97083 8.49394,6.00001 0.51409,0.36984 0.60808,0.43803 0.60973,0.44234 9.2e-4,0.002 10e-4,0.1041 6.6e-4,0.22598 l -10e-4,0.2216 z"
     id="path1232"
     transform="scale(0.04)" />
  <path
     style="fill:#ffffff;stroke-width:0.00390625"
     d="m 374.53906,288.24156 c -3.115,-2.24522 -6.55372,-4.67235 -9.62304,-6.79215 -0.14717,-0.10164 -0.26831,-0.18545 -0.26921,-0.18625 -9e-4,-7.9e-4 0.14688,-0.001 0.32838,-0.001 h 0.33001 l 0.19505,0.1353 c 2.83712,1.96794 5.65772,3.96029 8.42162,5.94866 0.5659,0.40711 0.6549,0.47164 0.65659,0.47607 9.3e-4,0.002 10e-4,0.10422 6.8e-4,0.22619 l -10e-4,0.22177 z"
     id="path1234"
     transform="scale(0.04)" />
  <path
     style="fill:#ffffff;stroke-width:0.00390625"
     d="m 374.25977,288.04054 c -3.05247,-2.19689 -6.29177,-4.48209 -9.29883,-6.55996 -0.17188,-0.11876 -0.31323,-0.21659 -0.31413,-0.2174 -9e-4,-8e-4 0.14694,-10e-4 0.32852,-10e-4 h 0.33015 l 0.22616,0.15684 c 2.81242,1.95039 5.76549,4.03711 8.52891,6.02674 0.51491,0.37073 0.51604,0.37155 0.51795,0.37655 9.1e-4,0.002 10e-4,0.10411 6.4e-4,0.22607 l -10e-4,0.22175 z"
     id="path1236"
     transform="scale(0.04)" />
</svg>
